<svg width="189" height="29" viewBox="0 0 189 29" fill="none" xmlns="http://www.w3.org/2000/svg">
<path d="M51.9531 21H48.8594L45.4932 15.5859L44.3418 16.4121V21H41.6172V8.15039H44.3418V14.0303L45.4141 12.5186L48.8945 8.15039H51.918L47.4355 13.8369L51.9531 21ZM65.2334 14.5576C65.2334 16.6846 64.7061 18.3193 63.6514 19.4619C62.5967 20.6045 61.085 21.1758 59.1162 21.1758C57.1475 21.1758 55.6357 20.6045 54.5811 19.4619C53.5264 18.3193 52.999 16.6787 52.999 14.54C52.999 12.4014 53.5264 10.7695 54.5811 9.64453C55.6416 8.51367 57.1592 7.94824 59.1338 7.94824C61.1084 7.94824 62.6172 8.5166 63.6602 9.65332C64.709 10.79 65.2334 12.4248 65.2334 14.5576ZM55.8555 14.5576C55.8555 15.9932 56.1279 17.0742 56.6729 17.8008C57.2178 18.5273 58.0322 18.8906 59.1162 18.8906C61.29 18.8906 62.377 17.4463 62.377 14.5576C62.377 11.6631 61.2959 10.2158 59.1338 10.2158C58.0498 10.2158 57.2324 10.582 56.6816 11.3145C56.1309 12.041 55.8555 13.1221 55.8555 14.5576ZM73.3369 21L70.2432 10.9189H70.1641C70.2754 12.9697 70.3311 14.3379 70.3311 15.0234V21H67.8965V8.15039H71.6055L74.6465 17.9766H74.6992L77.9248 8.15039H81.6338V21H79.0938V14.918C79.0938 14.6309 79.0967 14.2998 79.1025 13.9248C79.1143 13.5498 79.1553 12.5537 79.2256 10.9365H79.1465L75.833 21H73.3369ZM87.6016 14.1973H88.498C89.3359 14.1973 89.9629 14.0332 90.3789 13.7051C90.7949 13.3711 91.0029 12.8877 91.0029 12.2549C91.0029 11.6162 90.8271 11.1445 90.4756 10.8398C90.1299 10.5352 89.585 10.3828 88.8408 10.3828H87.6016V14.1973ZM93.7539 12.1582C93.7539 13.541 93.3203 14.5986 92.4531 15.3311C91.5918 16.0635 90.3643 16.4297 88.7705 16.4297H87.6016V21H84.877V8.15039H88.9814C90.54 8.15039 91.7236 8.4873 92.5322 9.16113C93.3467 9.8291 93.7539 10.8281 93.7539 12.1582ZM103.58 21H96.1797V8.15039H103.58V10.3828H98.9043V13.2041H103.255V15.4365H98.9043V18.75H103.58V21ZM111.227 21H108.502V10.418H105.013V8.15039H114.716V10.418H111.227V21ZM124.094 21H116.693V8.15039H124.094V10.3828H119.418V13.2041H123.769V15.4365H119.418V18.75H124.094V21ZM131.661 13.7842H136.759V20.4463C135.933 20.7158 135.153 20.9033 134.421 21.0088C133.694 21.1201 132.95 21.1758 132.188 21.1758C130.249 21.1758 128.767 20.6074 127.741 19.4707C126.722 18.3281 126.212 16.6904 126.212 14.5576C126.212 12.4834 126.804 10.8662 127.987 9.70605C129.177 8.5459 130.823 7.96582 132.927 7.96582C134.245 7.96582 135.517 8.22949 136.741 8.75684L135.836 10.9365C134.898 10.4678 133.923 10.2334 132.909 10.2334C131.731 10.2334 130.788 10.6289 130.079 11.4199C129.37 12.2109 129.016 13.2744 129.016 14.6104C129.016 16.0049 129.3 17.0713 129.868 17.8096C130.442 18.542 131.274 18.9082 132.364 18.9082C132.933 18.9082 133.51 18.8496 134.096 18.7324V16.0518H131.661V13.7842ZM142.551 13.8545H143.43C144.291 13.8545 144.927 13.7109 145.337 13.4238C145.747 13.1367 145.952 12.6855 145.952 12.0703C145.952 11.4609 145.741 11.0273 145.319 10.7695C144.903 10.5117 144.256 10.3828 143.377 10.3828H142.551V13.8545ZM142.551 16.0693V21H139.826V8.15039H143.57C145.316 8.15039 146.608 8.46973 147.446 9.1084C148.284 9.74121 148.703 10.7051 148.703 12C148.703 12.7559 148.495 13.4297 148.079 14.0215C147.663 14.6074 147.074 15.0674 146.312 15.4014C148.246 18.29 149.506 20.1562 150.092 21H147.068L144.001 16.0693H142.551ZM159.575 21L158.644 17.9414H153.959L153.027 21H150.092L154.627 8.09766H157.958L162.511 21H159.575ZM157.993 15.6562C157.132 12.8848 156.646 11.3174 156.534 10.9541C156.429 10.5908 156.353 10.3037 156.306 10.0928C156.112 10.8428 155.559 12.6973 154.645 15.6562H157.993ZM169.577 21L166.483 10.9189H166.404C166.516 12.9697 166.571 14.3379 166.571 15.0234V21H164.137V8.15039H167.846L170.887 17.9766H170.939L174.165 8.15039H177.874V21H175.334V14.918C175.334 14.6309 175.337 14.2998 175.343 13.9248C175.354 13.5498 175.396 12.5537 175.466 10.9365H175.387L172.073 21H169.577Z" fill="white"/>
<path d="M13.7187 21.1063C18.1081 21.1063 21.6663 17.426 21.6663 12.8861C21.6663 8.34621 18.1081 4.66595 13.7187 4.66595C9.32942 4.66595 5.77115 8.34621 5.77115 12.8861C5.77115 17.426 9.32942 21.1063 13.7187 21.1063Z" stroke="white" stroke-width="1.5"/>
<path d="M1 1C3.41519 1.71775 5.66764 3.38311 7.41275 5.74126" stroke="white" stroke-width="1.5"/>
<path d="M22.0926 8.45006C23.934 6.68139 26.4759 5.54614 29.3294 5.21805" stroke="white" stroke-width="1.5"/>
<path d="M5.58804 27.8425C4.85097 27.0983 4.29985 26.2306 3.96914 25.2937C3.63844 24.3568 3.53535 23.3709 3.66629 22.398C3.79724 21.4251 4.15939 20.486 4.73012 19.6396C5.30077 18.7933 6.06774 18.0579 6.98278 17.4796" stroke="white" stroke-width="1.5"/>
</svg>
